<svg width="404" height="92" viewBox="0 0 404 92" fill="none" xmlns="http://www.w3.org/2000/svg">
<path d="M54.0789 37.8C55.0122 41.1333 55.4789 44.8333 55.4789 48.9C55.4789 52.5 54.9456 56.0667 53.8789 59.6C52.9456 62.8 51.4789 65.6333 49.4789 68.1C47.5456 70.5 45.2122 72.3667 42.4789 73.7C39.8789 75.0333 36.8456 75.7 33.3789 75.7C25.9122 75.7 17.5456 74.7667 8.27891 72.9V10.6L5.17891 10.1C4.77891 10.0333 4.44557 9.96666 4.17891 9.9C3.91224 9.83333 3.67891 9.8 3.47891 9.8L2.77891 9.69999C1.11224 9.3 0.278906 8.26666 0.278906 6.6V0.699997H20.5789V30C22.5122 27.8667 24.8122 26.1333 27.4789 24.8C30.0122 23.5333 33.0122 22.9 36.4789 22.9C39.4122 22.9 41.9789 23.4667 44.1789 24.6C46.4456 25.6667 48.4456 27.3333 50.1789 29.6C51.8456 31.7333 53.1456 34.4667 54.0789 37.8ZM41.8789 56.7C42.4122 54.7667 42.6789 52.1667 42.6789 48.9C42.6789 45.7667 42.4456 43.2333 41.9789 41.3C41.4456 39.1667 40.7456 37.4667 39.8789 36.2C39.0122 34.9333 37.9122 34 36.5789 33.4C35.3122 32.8 33.8789 32.5 32.2789 32.5C29.6122 32.5 27.4122 33.0333 25.6789 34.1C23.8122 35.2333 22.1122 36.7667 20.5789 38.7V65.4C23.8456 66 27.1789 66.3 30.5789 66.3C32.5122 66.3 34.1789 65.9667 35.5789 65.3C37.1122 64.5667 38.3789 63.5 39.3789 62.1C40.5122 60.5667 41.3456 58.7667 41.8789 56.7ZM86.0844 8.7C86.0844 9.63333 85.851 10.6333 85.3844 11.7C84.9844 12.6333 84.4177 13.4667 83.6844 14.2C82.8844 15 82.051 15.5667 81.1844 15.9C80.1844 16.3 79.151 16.5 78.0844 16.5C77.0177 16.5 75.9844 16.3 74.9844 15.9C74.1844 15.5667 73.3844 15 72.5844 14.2C71.851 13.4667 71.2844 12.6333 70.8844 11.7C70.4844 10.7667 70.2844 9.76666 70.2844 8.7C70.2844 7.63333 70.4844 6.6 70.8844 5.6C71.2177 4.73333 71.7844 3.9 72.5844 3.1C73.3177 2.36666 74.1177 1.83333 74.9844 1.5C76.1844 1.03333 77.2177 0.799996 78.0844 0.799996C78.951 0.799996 79.9844 1.03333 81.1844 1.5C82.1844 1.9 83.0177 2.43333 83.6844 3.1C84.4844 3.9 85.051 4.73333 85.3844 5.6C85.851 6.73333 86.0844 7.76666 86.0844 8.7ZM89.2844 66C90.951 66.4 91.7844 67.4333 91.7844 69.1V75H64.2844V69.1C64.2844 67.4333 65.1177 66.4 66.7844 66L67.3844 65.9L68.8844 65.6L71.8844 65.1V33.6L68.8844 33.1C68.551 33.0333 68.251 32.9667 67.9844 32.9C67.7844 32.8333 67.5844 32.8 67.3844 32.8L66.7844 32.7C65.1177 32.3 64.2844 31.2667 64.2844 29.6V23.7H84.1844V65.1L87.1844 65.6C87.5177 65.6667 87.7844 65.7333 87.9844 65.8C88.251 65.8667 88.4844 65.9 88.6844 65.9L89.2844 66ZM121.741 75.8C117.275 75.8 113.841 74.5333 111.441 72C109.041 69.4667 107.841 66 107.841 61.6V33H102.641C102.108 33 101.541 32.7667 100.941 32.3C100.408 31.9 100.141 31.2667 100.141 30.4V25.4L108.441 24.1L111.041 10.1C111.108 9.49999 111.408 9 111.941 8.6C112.475 8.2 113.108 8 113.841 8H120.241V24.2H133.741V33H120.241V60.8C120.241 62.3333 120.641 63.5667 121.441 64.5C122.241 65.3667 123.308 65.8 124.641 65.8C125.575 65.8 126.208 65.7333 126.541 65.6L127.841 65L128.941 64.4C129.141 64.2667 129.408 64.2 129.741 64.2C130.275 64.2 130.608 64.2667 130.741 64.4L131.441 65.2L135.141 71.2C133.408 72.6 131.341 73.7333 128.941 74.6C126.675 75.4 124.275 75.8 121.741 75.8ZM186.544 67.3C184.944 69.1 183.477 70.4667 182.144 71.4C180.81 72.2667 179.144 73.1333 177.144 74C175.677 74.5333 173.91 74.9667 171.844 75.3C170.244 75.5667 168.41 75.7 166.344 75.7C163.077 75.7 160.11 75.1333 157.444 74C154.644 72.8 152.21 71.0667 150.144 68.8C147.944 66.4 146.277 63.6333 145.144 60.5C143.944 57.1667 143.344 53.4 143.344 49.2C143.344 45.4 143.877 41.9333 144.944 38.8C146.077 35.6 147.677 32.8 149.744 30.4C151.81 28.0667 154.41 26.2333 157.544 24.9C160.744 23.5667 164.31 22.9 168.244 22.9C172.51 22.9 177.91 24.1333 184.444 26.6L184.344 42.4H178.644C177.444 42.4 176.677 41.7667 176.344 40.5L175.544 33.3C173.077 32.6333 170.877 32.3 168.944 32.3C166.744 32.3 164.844 32.7 163.244 33.5C161.577 34.3 160.244 35.4 159.244 36.8C158.044 38.4667 157.21 40.2667 156.744 42.2C156.21 44.4667 155.944 46.8 155.944 49.2C155.944 51.9333 156.244 54.3667 156.844 56.5C157.444 58.7 158.277 60.5 159.344 61.9C160.477 63.3 161.81 64.4 163.344 65.2C165.01 65.9333 166.777 66.3 168.644 66.3C170.71 66.3 172.31 66.0667 173.444 65.6C174.91 65 175.944 64.4667 176.544 64C176.877 63.7333 177.21 63.5 177.544 63.3C177.944 63.0333 178.344 62.7333 178.744 62.4C179.277 61.9333 179.944 61.7 180.744 61.7C181.81 61.7 182.577 62.0667 183.044 62.8L186.544 67.3ZM241.042 65.9C242.709 66.3 243.542 67.3333 243.542 69V74.9H231.742C230.476 74.9 229.542 74.7333 228.942 74.4C228.276 74.1333 227.776 73.4 227.442 72.2L226.342 68.6C225.009 69.8667 223.742 70.9 222.542 71.7C221.609 72.3667 220.309 73.1 218.642 73.9C217.442 74.4333 216.042 74.8667 214.442 75.2C212.776 75.5333 211.109 75.7 209.442 75.7C207.242 75.7 205.242 75.4 203.442 74.8C201.509 74.1333 199.942 73.2667 198.742 72.2C197.342 70.9333 196.309 69.4667 195.642 67.8C194.909 66 194.542 64 194.542 61.8C194.542 59.8 195.042 57.8667 196.042 56C197.042 54.0667 198.742 52.3667 201.142 50.9C203.676 49.3 206.809 48.0333 210.542 47.1C214.476 46.1 219.376 45.6 225.242 45.6V42.6C225.242 39.2667 224.509 36.7 223.042 34.9C221.642 33.2333 219.542 32.4 216.742 32.4C214.609 32.4 212.942 32.6333 211.742 33.1C210.209 33.7 209.042 34.2333 208.242 34.7L205.542 36.2C204.809 36.6667 203.909 36.9 202.842 36.9C201.976 36.9 201.242 36.7 200.642 36.3C200.242 36.0333 199.776 35.5 199.242 34.7L196.942 30.8C202.942 25.3333 210.042 22.6 218.242 22.6C221.242 22.6 223.942 23.1 226.342 24.1C228.676 25.1 230.642 26.4667 232.242 28.2C234.042 30.2667 235.309 32.3667 236.042 34.5C236.842 36.9 237.242 39.5667 237.242 42.5V65.2L239.942 65.7L241.042 65.9ZM225.242 53.1C221.509 53.1 218.509 53.3333 216.242 53.8C213.776 54.3333 211.809 54.9333 210.342 55.6C208.876 56.2667 207.842 57.0667 207.242 58C206.642 58.8667 206.342 59.9 206.342 61.1C206.342 63.3667 206.976 64.9333 208.242 65.8C209.576 66.7333 211.242 67.2 213.242 67.2C214.509 67.2 215.676 67.1 216.742 66.9C217.876 66.7 218.909 66.3333 219.842 65.8C221.042 65.1333 221.942 64.5667 222.542 64.1C223.476 63.3667 224.376 62.5667 225.242 61.7V53.1ZM337.491 66C339.157 66.4 339.991 67.4333 339.991 69.1V75H320.091V42.4C320.091 39.0667 319.391 36.6 317.991 35C316.591 33.3333 314.491 32.5 311.691 32.5C310.557 32.5 309.357 32.7333 308.091 33.2C307.024 33.6 306.091 34.2 305.291 35C304.624 35.6667 303.991 36.7 303.391 38.1C302.924 39.2333 302.691 40.6667 302.691 42.4V65.1L305.591 65.6L307.091 65.9L307.691 66C309.357 66.4 310.191 67.4333 310.191 69.1V75H290.291V42.4C290.291 39 289.591 36.5 288.191 34.9C286.791 33.3 284.757 32.5 282.091 32.5C280.291 32.5 278.624 32.9333 277.091 33.8C275.691 34.6 274.257 35.8333 272.791 37.5V65.1L275.691 65.6L277.191 65.9L277.791 66C279.457 66.4 280.291 67.4333 280.291 69.1V75H252.891V69.1C252.891 67.4333 253.724 66.4 255.391 66L255.991 65.9C256.191 65.9 256.391 65.8667 256.591 65.8C256.857 65.7333 257.157 65.6667 257.491 65.6L260.391 65.1V33.6L257.491 33.1C257.157 33.0333 256.857 32.9667 256.591 32.9C256.391 32.8333 256.191 32.8 255.991 32.8L255.391 32.7C253.657 32.3 252.791 31.2667 252.791 29.6V23.7H267.991C269.524 23.7 270.557 24.4667 271.091 26L271.891 29.8C273.091 28.4667 274.024 27.5333 274.691 27C275.624 26.2667 276.691 25.5667 277.891 24.9C278.957 24.3 280.157 23.8 281.491 23.4C282.557 23.0667 283.957 22.9 285.691 22.9C289.024 22.9 291.691 23.7667 293.691 25.5C295.824 27.3667 297.391 29.7 298.391 32.5C299.191 30.7667 300.191 29.3 301.391 28.1C302.457 27.0333 303.757 26.0667 305.291 25.2C306.424 24.5333 307.957 23.9667 309.891 23.5C311.491 23.1 313.124 22.9 314.791 22.9C317.657 22.9 320.157 23.3333 322.291 24.2C324.624 25.1333 326.491 26.4 327.891 28C329.357 29.6667 330.491 31.7 331.291 34.1C332.091 36.5 332.491 39.2667 332.491 42.4V65.1L335.391 65.6C335.724 65.6667 335.991 65.7333 336.191 65.8C336.457 65.8667 336.691 65.9 336.891 65.9L337.491 66ZM402.106 37.8C403.04 41.2 403.506 44.9 403.506 48.9C403.506 52.5 402.973 56.0667 401.906 59.6C400.973 62.8 399.506 65.6333 397.506 68.1C395.706 70.3667 393.406 72.2333 390.606 73.7C388.006 75.0333 384.94 75.7 381.406 75.7C378.473 75.7 376.04 75.2667 374.106 74.4C371.906 73.4 370.073 72.1667 368.606 70.7V81.8C369.273 81.9333 369.84 82.0333 370.306 82.1C370.84 82.2333 371.273 82.3333 371.606 82.4C372.673 82.5333 373.173 82.6 373.106 82.6L373.706 82.7C375.373 83.1 376.206 84.1667 376.206 85.9V91.7H348.706V85.9C348.706 84.1667 349.54 83.1 351.206 82.7L351.806 82.6L353.306 82.4L356.306 81.8V33.6L353.306 33.1C352.973 33.0333 352.673 32.9667 352.406 32.9C352.206 32.8333 352.006 32.8 351.806 32.8L351.206 32.7C349.54 32.3 348.706 31.2667 348.706 29.6V23.7H363.806C364.606 23.7 365.306 23.9 365.906 24.3C366.44 24.6333 366.806 25.2 367.006 26L368.006 30.7C370.006 28.4333 372.373 26.5333 375.106 25C377.773 23.5333 380.906 22.8 384.506 22.8C387.44 22.8 390.006 23.3667 392.206 24.5C394.54 25.7 396.54 27.4 398.206 29.6C399.873 31.7333 401.173 34.4667 402.106 37.8ZM389.906 56.7C390.44 54.7667 390.706 52.2 390.706 49C390.706 45.8 390.473 43.2333 390.006 41.3C389.54 39.3 388.84 37.6333 387.906 36.3C386.973 34.9667 385.873 34 384.606 33.4C383.34 32.8 381.906 32.5 380.306 32.5C377.64 32.5 375.44 33.0333 373.706 34.1C371.84 35.2333 370.14 36.7667 368.606 38.7V61.7C369.94 63.3667 371.473 64.5667 373.206 65.3C374.74 65.9667 376.506 66.3 378.506 66.3C380.506 66.3 382.206 65.9667 383.606 65.3C384.94 64.7 386.206 63.6333 387.406 62.1C388.54 60.5667 389.373 58.7667 389.906 56.7Z" fill="#8C685A"/>
</svg>
