<?xml version="1.0" encoding="UTF-8" standalone="no"?>
<svg
   fill="#000000"
   viewBox="0 0 50 50"
   width="100px"
   height="100px"
   version="1.1"
   id="svg4"
   sodipodi:docname="twitter.svg"
   inkscape:version="1.2.1 (9c6d41e410, 2022-07-14)"
   xmlns:inkscape="http://www.inkscape.org/namespaces/inkscape"
   xmlns:sodipodi="http://sodipodi.sourceforge.net/DTD/sodipodi-0.dtd"
   xmlns="http://www.w3.org/2000/svg"
   xmlns:svg="http://www.w3.org/2000/svg">
  <defs
     id="defs8" />
  <sodipodi:namedview
     id="namedview6"
     pagecolor="#ffffff"
     bordercolor="#666666"
     borderopacity="1.0"
     inkscape:showpageshadow="2"
     inkscape:pageopacity="0.0"
     inkscape:pagecheckerboard="0"
     inkscape:deskcolor="#d1d1d1"
     showgrid="false"
     inkscape:zoom="2.36"
     inkscape:cx="50.211864"
     inkscape:cy="50"
     inkscape:window-width="2948"
     inkscape:window-height="1848"
     inkscape:window-x="26"
     inkscape:window-y="51"
     inkscape:window-maximized="0"
     inkscape:current-layer="svg4" />
  <path
     d="m 50.060547,9.455078 c -1.847656,0.820313 -3.828125,1.371094 -5.910156,1.621094 2.125,-1.273438 3.757812,-3.289063 4.523437,-5.6875 -1.984375,1.175781 -4.191406,2.03125 -6.53125,2.492187 -1.875,-2 -4.546875,-3.246093 -7.503906,-3.246093 -5.679687,0 -10.285156,4.601562 -10.285156,10.28125 0,0.804687 0.09375,1.589843 0.269531,2.34375 C 16.076172,16.830078 8.5019529,12.736328 3.4277349,6.513672 c -0.886719,1.523437 -1.390625,3.289062 -1.390625,5.171875 0,3.566406 1.8125,6.714844 4.574218,8.5625 -1.6875,-0.05469 -3.273437,-0.519531 -4.660156,-1.289063 0,0.04297 0,0.08594 0,0.128907 0,4.984375 3.546875,9.136718 8.2460941,10.085937 -0.8593751,0.234375 -1.7695311,0.359375 -2.7070311,0.359375 -0.664063,0 -1.308594,-0.0625 -1.9375,-0.1875 1.3125,4.082031 5.1093751,7.0625 9.6054681,7.144531 -3.515625,2.757813 -7.9492181,4.398438 -12.7695311,4.398438 -0.832031,0 -1.648437,-0.04687 -2.4492188,-0.144531 4.5468748,2.921875 9.9531248,4.621093 15.7617189,4.621093 18.914063,0 29.257813,-15.667968 29.257813,-29.253906 0,-0.445312 -0.01172,-0.894531 -0.02734,-1.332031 2.007812,-1.449219 3.75,-3.261719 5.128906,-5.324219 z"
     id="path2"
     style="fill:#ffffff" />
</svg>
