<svg width="148" height="166" viewBox="0 0 148 166" fill="none" xmlns="http://www.w3.org/2000/svg">
<path d="M105.171 147.567C100.113 152.575 90.2953 163.037 89.1053 162.889C88.3584 162.795 83.8988 160.261 82.2625 158.129" stroke="#1A2E33" stroke-width="3.47" stroke-linecap="round"/>
<path d="M54.5396 138.593C48.493 142.348 36.4456 150.542 35.4635 149.949C34.819 149.56 31.4666 147.035 30.3465 144.591" stroke="#1A2E33" stroke-width="3.47" stroke-linecap="round"/>
<path d="M19.3848 119.197C19.7566 111.31 24.0841 94.5106 36.383 80.9238" stroke="#1A2E33" stroke-width="3.47" stroke-linecap="round"/>
<path d="M86.2789 156.492L94.9177 148.413L109.782 146.377L98.3281 164.227L86.2789 156.492Z" fill="#D2A27C"/>
<path d="M34.6604 142.063L47.6022 136.41L54.2963 142.807L41.8007 151.435L34.6604 142.063Z" fill="#D2A27C"/>
<rect x="32.7266" y="23.206" width="104.427" height="127.038" rx="46" fill="white"/>
<path d="M32.7266 90.4442H137.154V104.244C137.154 129.649 116.559 150.244 91.1536 150.244H78.7266C53.3215 150.244 32.7266 129.649 32.7266 104.244V90.4442Z" fill="#D2A27C"/>
<path d="M139.807 76.5378C138.386 75.4972 97.9889 85.3175 81.0356 90.3577C78.7752 91.0276 81.0356 95.723 81.0356 97.8366C81.0356 99.9502 138.354 91.6583 139.807 90.3576C141.26 89.0569 141.583 77.8385 139.807 76.5378Z" fill="#AF7E64"/>
<path d="M29.1778 76.5378C30.5958 75.4972 64.7875 85.3174 81.7062 90.3576C83.962 91.0276 81.7062 95.723 81.7062 97.8366C81.7062 99.9502 30.628 91.6583 29.1778 90.3576C27.7277 89.057 27.4054 77.8385 29.1778 76.5378Z" fill="#AF7E64"/>
<path d="M62.4772 78.6859C64.4485 78.727 66.1007 76.1635 66.1675 72.9601C66.2343 69.7567 64.6904 67.1265 62.719 67.0854C60.7477 67.0443 59.0955 69.6079 59.0287 72.8113C58.962 76.0147 60.5059 78.6448 62.4772 78.6859Z" fill="#1A2E33"/>
<path d="M101.925 80.0743C103.896 80.1154 105.548 77.5518 105.615 74.3484C105.682 71.145 104.138 68.5149 102.167 68.4738C100.195 68.4327 98.543 70.9962 98.4762 74.1996C98.4095 77.403 99.9534 80.0332 101.925 80.0743Z" fill="#1A2E33"/>
<path d="M125.569 40.7081L121.554 14.8769C120.443 6.38577 110.539 0 98.2826 0C96.3283 0 94.2152 0.737068 93.4148 1.98039C91.7525 4.56445 89.1008 6.35409 86.1053 6.35409C83.1125 6.35409 80.4611 4.56445 78.7957 1.98039C77.9949 0.737068 75.8854 0 73.9279 0C61.6743 0 51.7679 6.38577 50.6598 14.8769L46.6414 40.7081C72.8653 42.8685 99.3483 42.8685 125.569 40.7081Z" fill="#805333"/>
<path d="M123.501 28.1661L125.569 40.7083C99.3483 42.8687 72.8653 42.8687 46.6414 40.7083L48.5509 28.1661C62.9786 31.0304 98.1674 35.0405 123.501 28.1661Z" fill="#684127"/>
<path d="M61.8011 22.5969C60.1219 22.5969 58.759 21.8122 58.759 20.8412C58.759 19.8703 60.1219 19.0855 61.8011 19.0855C68.5118 19.0855 73.9689 15.9357 73.9689 12.0629C73.9689 11.0919 75.3318 10.3071 77.011 10.3071C78.6902 10.3071 80.0531 11.0919 80.0531 12.0629C80.0531 17.8725 71.8672 22.5969 61.8011 22.5969Z" fill="#684127"/>
<path d="M110.473 22.5969C100.407 22.5969 92.2209 17.8725 92.2209 12.0629C92.2209 11.0919 93.5838 10.3071 95.2631 10.3071C96.9423 10.3071 98.3052 11.0919 98.3052 12.0629C98.3052 15.9359 103.763 19.0854 110.473 19.0854C112.152 19.0854 113.515 19.8702 113.515 20.8412C113.515 21.8121 112.152 22.5969 110.473 22.5969Z" fill="#684127"/>
<path d="M141.804 45.8855L117.887 49.183C96.799 52.0908 75.4121 52.0908 54.3221 49.183L30.4069 45.8855C27.3072 45.4577 25 42.8089 25 39.6821C25 35.883 28.3546 32.9583 32.1178 33.4767L54.3223 36.5404C75.4121 39.4481 96.799 39.4481 117.887 36.5404L140.093 33.4767C143.857 32.9583 147.211 35.883 147.211 39.6821C147.211 42.8089 144.904 45.4577 141.804 45.8855Z" fill="#805333"/>
<path opacity="0.5" d="M63.7415 86.6099C70.8483 88.2271 77.9205 83.7769 79.5377 76.6701C81.1549 69.5634 76.7047 62.4912 69.5979 60.874C62.4912 59.2568 55.419 63.707 53.8018 70.8137C52.1846 77.9205 56.6347 84.9927 63.7415 86.6099Z" fill="#27A2DB"/>
<path opacity="0.5" d="M58.9586 79.9218C55.641 74.6496 57.1567 67.7293 62.3441 64.4654C63.5015 63.7369 64.7456 63.2656 66.0146 63.0105C64.2702 63.1154 62.5269 63.6458 60.9436 64.6421C55.9181 67.8045 54.4076 74.442 57.5699 79.4677C58.9702 81.6929 61.0528 83.2253 63.3741 83.9717C61.6294 83.0707 60.0852 81.7122 58.9586 79.9218Z" fill="white"/>
<path d="M80.3143 65.1558C75.5724 57.62 65.6194 55.3553 58.0837 60.0972C50.548 64.8391 48.2831 74.7921 53.0249 82.3277C57.3947 89.2722 66.1858 91.7253 73.4367 88.359L74.5227 90.0852L78.0056 87.8937L76.9194 86.1675C83.0916 81.0874 84.6841 72.1003 80.3143 65.1558ZM73.6981 84.9115C67.5293 88.7932 59.3817 86.9391 55.4999 80.7703C51.6183 74.6016 53.4723 66.454 59.6412 62.5723C65.8101 58.6906 73.9574 60.5446 77.8391 66.7134C81.7209 72.8822 79.8668 81.0298 73.6981 84.9115Z" fill="#3A556A"/>
<path d="M79.0099 87.0136L73.2942 90.6101C72.9693 90.8146 72.8717 91.2436 73.0761 91.5684L86.429 112.788C87.3581 114.265 94.2501 109.928 93.321 108.452L79.9683 87.2317C79.7638 86.9068 79.3349 86.8092 79.0099 87.0136Z" fill="#EFA73B"/>
<path d="M85.8712 111.901L92.7632 107.564L92.027 106.394L85.135 110.731L85.8712 111.901Z" fill="#EBF0F3"/>
<path d="M74.4821 93.7973L81.374 89.4605L80.6378 88.2906L73.7459 92.6273L74.4821 93.7973Z" fill="#EBF0F3"/>
<circle cx="77.7996" cy="106.659" r="2.52886" fill="#603417"/>
<ellipse cx="77.7996" cy="117.815" rx="2.52886" ry="2.3801" fill="#603417"/>
<circle cx="77.7996" cy="128.675" r="2.52886" fill="#603417"/>
<path d="M41.0002 130.5C82.6521 140.542 113.877 134.42 129 130.5C123.5 138 117.5 142.5 114.5 144C89.5092 149.55 60.6943 145.378 54.0002 143C49.5002 141 43.0828 133.847 41.0002 130.5Z" fill="#381E0E"/>
<rect x="69.0166" y="134.179" width="19.7835" height="12.4444" rx="5" transform="rotate(1.33955 69.0166 134.179)" fill="#C7C8C9"/>
<rect x="97.5845" y="100.56" width="20.2309" height="22.3135" rx="5" fill="#AC8063"/>
<path d="M97.5845 106.064H117.815" stroke="#381E0E"/>
<rect x="42.7861" y="98.8518" width="20.2309" height="22.3135" rx="5" transform="rotate(3.45604 42.7861 98.8518)" fill="#AC8063"/>
<path d="M42.4541 104.346L62.6482 105.566" stroke="#381E0E"/>
<path d="M126.067 94.4831C124.98 100.34 97.3105 104.648 87.3332 107.322" stroke="#1A2E33" stroke-width="3.47" stroke-linecap="round"/>
<path d="M15.9434 96.2186C16.4005 98.9263 23.9721 106.529 27.5792 110.063C30.2833 112.713 35.9424 118.112 39.2555 121.301L35.1955 125.52C28.5917 119.164 25.0204 115.978 19.9829 111.13C14.5953 105.945 11.2636 103.494 9.56697 101.735C7.87035 99.9761 6.6914 100.353 5.09587 98.8806C3.50033 97.4079 4.61077 96.7759 4.70186 96.4856C4.77472 96.2534 4.59817 96.0499 4.50079 95.9772C4.10904 95.5581 3.22378 94.3953 2.81675 93.0965C2.30797 91.473 3.16551 91.0385 3.8409 91.1846C4.3812 91.3015 4.42493 90.9908 4.37925 90.8209C4.37406 90.5219 4.60688 89.9061 5.57966 89.8345C6.79564 89.745 8.51408 89.0682 9.06057 87.3265C9.60707 85.5848 14.388 84.1391 14.678 89.7725C14.9681 95.4059 15.372 92.834 15.9434 96.2186Z" fill="#F4E6C3"/>
<path d="M32.7151 125.898C32.258 123.19 24.6863 115.588 21.0792 112.053C18.3751 109.403 12.716 104.004 9.40296 100.815L13.4629 96.5969C20.0667 102.953 23.6381 106.138 28.6755 110.986C34.0632 116.172 37.3949 118.622 39.0915 120.381C40.7881 122.14 41.967 121.763 43.5626 123.236C45.1581 124.708 44.0477 125.341 43.9566 125.631C43.8837 125.863 44.0603 126.067 44.1577 126.139C44.5494 126.558 45.4347 127.721 45.8417 129.02C46.3505 130.643 45.4929 131.078 44.8176 130.932C44.2772 130.815 44.2335 131.126 44.2792 131.296C44.2844 131.595 44.0516 132.21 43.0788 132.282C41.8628 132.371 40.1444 133.048 39.5979 134.79C39.0514 136.532 34.2704 137.977 33.9804 132.344C33.6904 126.711 33.2865 129.282 32.7151 125.898Z" fill="#F4E6C3"/>
<rect x="107.008" y="153.096" width="10.0981" height="6.72463" rx="3" transform="rotate(123.843 107.008 153.096)" fill="#AC8063"/>
<rect x="45.8428" y="139.621" width="9.05491" height="2.79333" rx="1.39667" transform="rotate(155.76 45.8428 139.621)" fill="#AC8063"/>
</svg>
