<svg width="260" height="220" viewBox="0 0 260 220" fill="none" xmlns="http://www.w3.org/2000/svg">
<path d="M173.041 117.423C140.959 102.714 108.611 97.1666 75.3535 100.664C71.9856 101.018 69.1391 98.0913 69.7072 94.7529L74.1469 68.6653C74.5277 66.4272 76.3696 64.7224 78.633 64.5448C117.73 61.4771 143.607 66.3793 181.689 82.1514C183.832 83.0386 185.066 85.2956 184.677 87.5814L180.233 113.693C179.672 116.994 176.085 118.819 173.041 117.423Z" fill="#243D31"/>
<path d="M102.385 21.9822L51.5764 13.3355C50.5633 13.1631 49.5844 13.7865 49.3123 14.7775L6.54092 170.529C6.22764 171.67 6.96769 172.832 8.13399 173.03L91.3611 187.194C92.5313 187.393 93.6165 186.535 93.6925 185.351L104.045 24.0819C104.111 23.0602 103.394 22.1539 102.385 21.9822Z" fill="#3B6852"/>
<path d="M99.2053 119.941L22.7966 106.937C22.2974 106.852 21.8135 107.154 21.6699 107.64L0.320996 179.849C0.151079 180.424 0.521376 181.018 1.11219 181.118L95.7182 197.218C96.3121 197.32 96.8599 196.876 96.8851 196.274L100.037 120.968C100.058 120.465 99.7016 120.025 99.2053 119.941Z" fill="#243D31"/>
<rect x="47.2656" y="2.80322" width="64.3986" height="13.7266" rx="6.86332" transform="rotate(9.65817 47.2656 2.80322)" fill="#71867C"/>
<path d="M233.803 44.3574L182.994 35.7107C181.981 35.5383 181.002 36.1618 180.73 37.1528L137.959 192.904C137.646 194.045 138.386 195.207 139.552 195.406L222.779 209.569C223.949 209.768 225.034 208.91 225.11 207.726L235.463 46.4572C235.529 45.4354 234.812 44.5292 233.803 44.3574Z" fill="#3B6852"/>
<path d="M230.623 142.316L154.215 129.312C153.715 129.227 153.231 129.529 153.088 130.015L131.739 202.224C131.569 202.799 131.939 203.393 132.53 203.493L227.136 219.593C227.73 219.695 228.278 219.251 228.303 218.649L231.455 143.343C231.476 142.84 231.12 142.4 230.623 142.316Z" fill="#243D31"/>
<rect x="178.685" y="25.1792" width="64.3986" height="13.7266" rx="6.86332" transform="rotate(9.65817 178.685 25.1792)" fill="#71867C"/>
</svg>
