<svg width="109" height="198" viewBox="0 0 109 198" fill="none" xmlns="http://www.w3.org/2000/svg">
<path d="M1.42061e-07 94.1192C1.42061e-07 72.9624 26.3043 72.2243 26.3043 94.1192H1.42061e-07Z" fill="#8C685A"/>
<path d="M36.7267 71.6133H88.3426V197.353H36.7267V71.6133Z" fill="#8C685A"/>
<path d="M36.7267 71.7098C36.7267 14.9557 88.3426 21.3161 88.3426 71.7098H36.7267Z" fill="#8C685A"/>
<path d="M14.8892 136.685H0.0201144C-0.321901 149.058 3.65954 151.339 14.8892 150.802V136.685Z" fill="#8C685A"/>
<path d="M14.3929 118.582H62.5347V150.873H14.3929V118.582Z" fill="#8C685A"/>
<path d="M1.42061e-07 94.1192H26.3043V136.685H1.42061e-07V94.1192Z" fill="#8C685A"/>
<path d="M52.0788 19.4269C41.4635 -0.244286 31.098 27.7269 45.1665 37.3876C59.2351 47.0484 66.9187 45.5123 80.4686 37.4589C94.0185 29.4055 82.6905 -0.244303 72.0752 19.4269C72.0752 -5.66104 52.0788 -5.66101 52.0788 19.4269Z" fill="#8C685A"/>
<path d="M67.437 80.2627H102.679V95.6H67.437V80.2627Z" fill="#8C685A"/>
<rect x="96.5137" y="73.1838" width="12.3346" height="17.6969" fill="#8C685A"/>
<ellipse cx="102.681" cy="72.5938" rx="6.16731" ry="6.48886" fill="#8C685A"/>
<path d="M102.68 95.5991V90.8799H108.847C108.847 95.5991 104.735 95.9923 102.68 95.5991Z" fill="#8C685A"/>
</svg>
