<svg width="502" height="567" viewBox="0 0 502 567" fill="none" xmlns="http://www.w3.org/2000/svg">
<path d="M190.851 497.104C133.996 501.738 20.339 486.379 18.532 387.896C16.3053 266.543 66.6808 319.28 61.482 196.199C61.3785 193.749 64.0156 192.114 65.8889 193.697C82.5576 207.781 106.797 244.612 105.483 308.165C105.412 311.635 109.171 312.352 109.911 308.961C113.174 294.018 115.651 276.289 115.78 265.7C115.81 263.222 118.419 261.685 120.281 263.32C125.943 268.29 133.937 277.088 136.526 284.905C129.041 254.791 127.419 187.784 177.532 142.305C228.981 95.6132 234.41 62.9552 246.045 45.5769C256.935 29.3096 261.199 14.364 285.662 2.40737C287.853 1.33649 290.247 3.27532 289.772 5.66732C281.397 47.8363 275.729 130.063 313.264 162.634C342.323 187.85 351.614 226.573 353.133 255.203C353.321 258.756 363.332 261.702 365.508 258.887C375.412 246.078 390.817 230.807 412.777 217.923C413.005 217.789 413.224 217.619 413.409 217.43C424.917 205.663 424.843 200.041 420.851 177.041C420.392 174.401 423.231 172.657 425.172 174.504C440.656 189.23 462.626 224.666 458.045 280.675C452.874 343.893 469.356 337.728 458.045 392.814C450.908 427.571 428.701 485.017 347.52 483.968C266.692 482.923 209.913 492.194 191.346 497.021C191.177 497.065 191.025 497.09 190.851 497.104Z" fill="#AC3828"/>
<path d="M33.3986 384.944C32.623 488.558 144.893 499.597 201.124 492.165C252.939 486.372 367.751 471.311 412.478 457.408C453.83 444.555 441.093 333.732 427.187 267.675C426.507 264.441 421.224 264.513 420.193 267.653C407.118 307.457 368.925 334.491 346.483 345.341C344.541 346.28 342.343 344.841 342.277 342.685C341.512 317.646 334.836 282.493 329.764 259.939C329.069 256.849 323.913 256.665 322.503 259.501C319.013 266.517 314.381 272.626 310.542 276.894C308.86 278.765 305.939 277.614 305.761 275.105C300.764 204.757 277.01 126.439 262.162 86.1459C261.071 83.184 256.747 83.7881 256.369 86.922C249.009 148.023 229.41 194.165 217.063 215.67C215.669 218.096 212.104 217.26 211.656 214.498C207.677 189.987 197.904 164.558 191.081 149.635C189.921 147.097 186.339 147.521 185.738 150.245C171.192 216.156 167.131 289.882 166.88 322.435C166.867 324.154 165.421 325.532 163.722 325.27C149.054 323.002 137.059 310.732 130.269 301.08C128.687 298.831 124.898 299.342 124.178 301.995C115.713 333.172 98.8567 380.982 85.7519 369.861C73.7408 359.669 73.0284 307.272 74.655 270.691C74.8059 267.298 69.9875 266.201 68.7026 269.345C39.2964 341.292 32.7974 376.202 33.3986 384.944Z" fill="#D16031"/>
<path d="M57.9661 409.918C73.6035 494.113 180.647 498.955 233.441 490.525C250.246 488.886 299.885 482.131 364.002 468.229C421.665 455.725 416.735 401.266 404.501 367.771C403.447 364.885 398.835 365.473 397.736 368.342C387.534 394.967 350.351 402.5 339.441 393.469C331.348 386.771 324.454 350.54 320.71 324.108C320.247 320.846 314.825 320.286 313.491 323.298C306.012 340.179 294.824 355.813 287.335 364.849C285.843 366.65 283.033 366.038 282.45 363.772C272.646 325.653 263.657 239.197 260.264 199.03C257.615 245.457 237.934 291.126 226.456 311.916C225.382 313.861 222.706 313.882 221.649 311.927C213.958 297.709 199.07 263.07 190.272 239.286C189.187 236.351 184.819 236.762 184.37 239.859C174.612 307.1 182.042 354.799 188.547 375.328C189.276 377.631 187.349 379.615 185.256 378.409C173.631 371.711 152.795 352.438 138.402 338.26C136.228 336.118 132.464 338.197 133.092 341.183C140.132 374.646 146.101 426.158 126.148 427.57C106.447 428.965 78.1871 415.874 62.4111 406.867C60.2143 405.612 57.5041 407.431 57.9661 409.918Z" fill="#E4A037"/>
<path d="M74.4361 513.017C58.9533 503.965 57.0676 492.174 58.0601 487.41L116.418 431.434L369.503 442.748L405.828 471.928L397.193 531.477L266.78 541.898H203.063C191.649 542.692 162.867 544.697 139.047 546.364C115.227 548.031 99.3476 537.134 94.3852 531.477C94.1867 529.095 89.9189 522.068 74.4361 513.017Z" fill="#2E1B14"/>
<path d="M129.251 421.477L84.2504 492.996C82.6186 495.589 82.5399 498.957 84.5576 501.263C93.9219 511.966 107.72 511.951 115.905 509.992C117.8 509.539 119.324 508.207 120.272 506.505L163.091 429.631C166.061 424.298 162.206 417.738 156.102 417.738H136.022C133.272 417.738 130.715 419.15 129.251 421.477Z" fill="#412921"/>
<path d="M167.317 371.478L14.7547 493.476C9.23556 497.89 11.7307 506.768 18.7409 507.66L45.4155 511.055C47.7682 511.355 50.1325 510.595 51.8702 508.981L179.579 390.353C181.753 388.334 182.631 385.277 181.86 382.412L180.038 375.646C178.539 370.078 171.82 367.877 167.317 371.478Z" fill="#674234"/>
<path d="M226.463 536.626C205.609 540.946 198.358 524.821 197.021 514.003C196.822 512.394 197.27 510.792 198.128 509.417L266.985 399.145C270.799 393.036 280.111 394.684 281.598 401.731L290.481 443.825C290.937 445.988 290.478 448.243 289.213 450.056L230.909 533.588C229.846 535.11 228.281 536.249 226.463 536.626Z" fill="#412921"/>
<path d="M245.788 334.555L173.983 476.868C171.752 481.291 174.035 486.658 178.769 488.117L206.514 496.668C210.336 497.847 214.442 496.02 216.126 492.392L275.08 365.393C276.218 362.942 276.041 360.082 274.611 357.789L259.717 333.923C256.415 328.632 248.597 328.987 245.788 334.555Z" fill="#674234"/>
<path d="M140.078 502.335L148.086 464.65C149.011 460.296 153.312 457.535 157.656 458.505L170.405 461.353C174.534 462.276 177.231 466.253 176.56 470.43L170.168 510.201C169.875 512.022 168.971 513.723 167.508 514.847C152.838 526.118 143.768 515.058 140.339 506.352C139.836 505.076 139.793 503.677 140.078 502.335Z" fill="#412921"/>
<path d="M311.492 535.943H303.201C299.349 535.943 296.043 533.197 295.337 529.41L255.607 316.384C254.207 308.877 263.118 303.863 268.808 308.957L274.924 314.434C276.21 315.585 277.088 317.12 277.43 318.811L319.333 526.36C320.334 531.314 316.546 535.943 311.492 535.943Z" fill="#54392F"/>
<path d="M193.05 235.873L142.654 450.265C141.772 454.019 143.693 457.868 147.223 459.42L178.965 473.37C183.58 475.398 188.897 472.704 189.992 467.783L238.688 248.928C239.59 244.878 237.245 240.811 233.288 239.562L203.247 230.075C198.809 228.673 194.115 231.342 193.05 235.873Z" fill="#54392F"/>
<path d="M273.915 400.15L268.802 407.5C266.596 410.671 266.971 414.964 269.692 417.705L386.267 535.111C388.701 537.562 392.433 538.174 395.522 536.63L407.041 530.87C411.974 528.404 412.99 521.801 409.026 517.966L286.045 398.969C282.502 395.541 276.731 396.103 273.915 400.15Z" fill="#4B2A1E"/>
<path d="M427.546 472.401L278.109 493.868C274.171 494.434 271.247 497.808 271.247 501.787V515.195C271.247 519.707 274.976 523.327 279.486 523.192L427.456 518.775C429.618 518.71 431.663 517.773 433.122 516.176L450.211 497.479C453.394 493.996 452.887 488.529 449.118 485.691L433.496 473.928C431.795 472.648 429.654 472.098 427.546 472.401Z" fill="#674234"/>
<path d="M305.023 339.545L282.453 358.45C278.947 361.386 278.612 366.658 281.717 370.015L406.135 504.528C409.218 507.861 414.454 507.963 417.665 504.753L438.783 483.634C441.827 480.59 441.917 475.684 438.986 472.531L316.019 340.231C313.121 337.113 308.287 336.811 305.023 339.545Z" fill="#54392F"/>
<path d="M108.394 532.771L106.859 533.688C100.65 537.396 102.157 546.785 109.215 548.363L168.1 561.53C174.838 563.037 180.192 555.874 176.839 549.838L175.372 547.197C174.238 545.156 172.27 543.713 169.983 543.245L114.101 531.802C112.144 531.401 110.109 531.747 108.394 532.771Z" fill="#674234"/>
<path d="M224.26 560.587L219.032 541.47C217.701 536.605 221.149 531.738 226.18 531.38L478.602 513.39C481.781 513.163 484.791 514.845 486.264 517.671L496.35 537.015C499.016 542.129 495.56 548.298 489.807 548.695L232.528 566.457C228.725 566.72 225.266 564.263 224.26 560.587Z" fill="#4B2A1E"/>
<path d="M199.788 536.836C192.94 542.394 183.352 554.463 199.788 558.274C220.332 563.038 211.698 536.836 199.788 536.836Z" fill="#362019"/>
<path d="M91.4082 512.421C97.0653 511.727 110.226 511.588 117.61 516.59C126.84 522.842 91.4082 533.859 91.4082 512.421Z" fill="#362019"/>
<path d="M154.233 534.454C158.203 527.209 169.834 516.352 184.603 530.882C203.063 549.044 149.575 540.409 154.233 534.454Z" fill="#362019"/>
<path d="M50.6169 546.96C57.8621 541.6 72.7693 530.882 74.4366 530.882C77.3148 532.073 84.0241 534.931 87.8352 536.836C91.6464 538.742 72.9479 546.364 63.1223 549.937L50.6169 546.96Z" fill="#362019"/>
</svg>
