<svg width="211" height="132" viewBox="0 0 211 132" fill="none" xmlns="http://www.w3.org/2000/svg">
<path d="M114.898 77.6605C111.159 90.1688 92.7727 94.4158 84.0472 94.9758V69.0028C89.7863 69.0028 101.903 67.3488 104.459 60.7328C107.653 52.4628 109.133 9.56219 109.678 5.68563C110.224 1.80906 109.678 0 112.016 0C113.885 0 114.716 3.79042 114.898 5.68563C116.456 24.4654 118.638 65.1521 114.898 77.6605Z" fill="#A37968"/>
<path d="M51.6409 37.7218C40.103 46.5084 41.4918 58.9713 43.6284 64.1044C37.5746 66.1048 24.2003 73.6837 19.1334 87.996C14.0665 102.308 21.2446 115.851 25.467 120.833L200.977 131.816L210.745 120.833C209.956 118.04 206.899 111.05 200.977 105.433C195.055 99.8172 163.153 91.4684 147.942 87.996C149.291 87.0147 151.178 82.6515 147.942 73.0496C143.898 61.0472 112.383 37.7218 101.623 37.7218C93.0155 37.7218 85.7254 44.0626 83.1564 47.2331C77.4587 40.4015 63.1787 28.9351 51.6409 37.7218Z" fill="#F6E5CB"/>
<path d="M2.67512 84.3327C7.52002 96.8032 31.3408 101.037 42.6455 101.596V75.7013C35.21 75.7013 19.5112 74.0523 16.2005 67.4564C12.0621 59.2114 10.1444 16.4408 9.4378 12.576C8.73125 8.71117 9.4378 6.90759 6.40974 6.90759C3.98729 6.90759 2.91064 10.6865 2.67512 12.576C0.656411 31.2989 -2.16978 71.8623 2.67512 84.3327Z" fill="#A37968"/>
<ellipse cx="43.4726" cy="88.7884" rx="7.45262" ry="13.0951" fill="#A37968"/>
<ellipse cx="11.9215" cy="19.9367" rx="11.9215" ry="19.9367" transform="matrix(0.551059 -0.834466 0.616731 0.787174 66.6318 77.3378)" fill="#A37968"/>
<ellipse cx="10.2256" cy="17.1006" rx="10.2256" ry="17.1006" transform="matrix(0.551059 -0.834466 0.616731 0.787174 105.759 70.1333)" fill="#A37968"/>
<ellipse cx="3.32158" cy="7.57897" rx="3.32158" ry="7.57897" transform="matrix(0.32055 -0.947232 0.836883 0.547381 182.24 115.663)" fill="#A37968"/>
</svg>
