<svg width="1728" height="663" viewBox="0 0 1728 663" fill="none" xmlns="http://www.w3.org/2000/svg">
<path d="M1013.06 412.108L1022.92 332.895L999.5 365.409L1013.06 412.108Z" fill="#15192F"/>
<path d="M1774 71.9292L1713.15 189.368H1745.23L1682.96 272.768H1713.15L1665.97 365.322H1713.15L1656.57 424.409L1655.36 411.971L1643.72 328.969C1643.02 314.461 1639.07 283.015 1628.91 273.298C1619.5 264.289 1602.08 260.964 1592.84 260.258C1591.65 234.861 1578.25 211.924 1570.68 202.59C1561.56 193.775 1540.3 170.45 1528.22 147.668C1513.12 119.189 1457.46 90.7111 1444.25 119.189C1433.68 141.972 1417.83 164.619 1411.22 173.094C1401.16 156.143 1378.01 127.326 1365.94 147.668C1353.86 168.009 1347.07 192.758 1345.18 202.59C1338.28 194.183 1321.37 180.164 1306.72 188.06C1296.68 191.063 1287.69 198.314 1282.93 203.455C1280.82 193.67 1273.2 169.04 1259.66 148.795C1246.12 128.551 1220.16 157.231 1208.87 174.101C1201.47 165.666 1183.69 143.127 1171.84 120.453C1157.03 92.1115 1094.6 120.453 1077.68 148.795C1064.13 171.469 1040.29 194.682 1030.06 203.455C1020.19 214.252 1001.5 243.336 1005.73 273.298C1008.86 295.458 1017.2 311.97 1023.9 321.523C1023.68 324.19 1023.53 326.623 1023.44 328.708L1022.92 332.895L1013.06 412.108L1011.68 428.166H938.014L870.3 365.409H923.202L870.3 273.298H904.157L834.327 190.296H870.3L757.09 0L644.935 190.296H680.573L611.393 273.298H644.935L592.526 365.409H644.935L577.852 428.166H486.661L535.926 356.299L486.661 328.969C492.95 322.896 506.576 303.259 510.769 273.298C514.961 243.336 496.444 214.252 486.661 203.455C476.528 194.682 452.909 171.469 439.493 148.795C422.722 120.453 360.88 92.1115 346.205 120.453C334.466 143.127 316.856 165.666 309.519 174.101C298.339 157.231 272.623 128.551 259.207 148.795C245.79 169.04 238.243 193.67 236.147 203.455C228.111 194.682 207.846 179.769 191.075 190.296C174.305 200.823 172.208 225.724 173.257 236.858C165.92 235.171 147.892 234.631 134.475 245.968C121.058 257.305 117.005 277.009 116.656 285.444C112.114 281.395 99.466 273.298 85.2108 273.298C70.9556 273.298 55.5125 289.493 49.5729 297.591L21.2722 260.139C11.4892 249.342 -14.1561 229.57 -38.4737 236.858C-62.7914 244.146 -68.8708 255.415 -68.8708 260.139C-77.2562 260.476 -96.5426 263.58 -106.605 273.298C-116.668 283.015 -120.581 314.461 -121.28 328.969L-136 451.641V631.852L757.09 663L1314.97 643.346L1774 659.873V71.9292Z" fill="#15192F"/>
</svg>
