<svg width="882" height="663" viewBox="0 0 882 663" fill="none" xmlns="http://www.w3.org/2000/svg">
<path d="M755.59 0L643.435 190.296H679.073L609.893 273.298H643.435L591.026 365.409H643.435L576.352 428.166H485.161L534.426 356.299L485.161 328.969C491.45 322.896 505.076 303.259 509.269 273.298C513.461 243.336 494.944 214.252 485.161 203.455C475.028 194.682 451.409 171.469 437.993 148.795C421.222 120.453 359.38 92.1115 344.705 120.453C332.966 143.127 315.356 165.666 308.019 174.101C296.839 157.231 271.123 128.551 257.707 148.795C244.29 169.04 236.743 193.67 234.647 203.455C226.611 194.682 206.346 179.769 189.575 190.296C172.805 200.823 170.708 225.724 171.757 236.858C164.42 235.171 146.392 234.631 132.975 245.968C119.558 257.305 115.505 277.009 115.156 285.444C110.614 281.395 97.966 273.298 83.7108 273.298C69.4556 273.298 54.0125 289.493 48.0729 297.591L19.7722 260.139C14.3775 254.185 4.15924 245.502 -8 240.132L-13.5 636.177L755.59 663V0Z" fill="#15192F"/>
<path fill-rule="evenodd" clip-rule="evenodd" d="M755.59 0L868.8 190.296H832.827L902.657 273.298H868.8L895.251 319.353V365.409H868.8L895.251 389.924V658.08L755.59 663V0Z" fill="#15192F"/>
</svg>
